<svg width="184" height="223" viewBox="0 0 184 223" fill="none" xmlns="http://www.w3.org/2000/svg">
<path d="M128.398 70.9682C110.818 67.2963 110.713 79.9169 93.5229 79.9169C78.6504 79.9169 78.0926 67.4393 58.6471 70.9682C26.8059 76.7251 21.9107 146.781 38.8025 150.452C48.1808 152.489 52.9056 141.614 65.305 133.808C67.1456 135.168 69.284 136.071 71.543 136.44C73.8019 136.809 76.1163 136.634 78.2943 135.931C80.4723 135.227 82.4512 134.014 84.0668 132.392C85.6825 130.771 86.8884 128.788 87.5845 126.608C89.5573 126.437 91.5366 126.352 93.5168 126.353C95.602 126.353 97.5499 126.443 99.4172 126.604C100.115 128.785 101.323 130.768 102.941 132.389C104.558 134.009 106.539 135.221 108.719 135.923C110.898 136.625 113.214 136.798 115.473 136.426C117.732 136.055 119.871 135.15 121.711 133.787C134.125 141.593 138.85 152.48 148.231 150.44C165.12 146.78 160.1 77.587 128.398 70.9682ZM63.188 106.786H55.886V99.3615H48.4578V92.0599H55.8855V84.6325H63.1874V92.0568H70.6117V99.3587H63.1874V106.783L63.188 106.786ZM73.8635 131.815C71.9668 131.815 70.1127 131.253 68.5357 130.199C66.9587 129.145 65.7296 127.647 65.0038 125.895C64.278 124.143 64.0881 122.215 64.4582 120.354C64.8282 118.494 65.7416 116.785 67.0828 115.444C68.424 114.103 70.1327 113.19 71.993 112.82C73.8533 112.45 75.7815 112.64 77.5338 113.365C79.2861 114.091 80.7838 115.32 81.8376 116.897C82.8913 118.475 83.4537 120.329 83.4537 122.225C83.4545 124.769 82.4449 127.208 80.647 129.007C78.8491 130.806 76.4102 131.817 73.8669 131.818L73.8635 131.815ZM113.133 131.815C111.237 131.814 109.383 131.25 107.807 130.195C106.231 129.14 105.004 127.641 104.279 125.889C103.555 124.136 103.366 122.208 103.737 120.348C104.109 118.488 105.023 116.78 106.365 115.44C107.707 114.1 109.416 113.188 111.276 112.819C113.136 112.45 115.064 112.641 116.816 113.367C118.568 114.094 120.065 115.323 121.118 116.901C122.171 118.478 122.732 120.332 122.732 122.228C122.732 123.489 122.483 124.736 122.001 125.9C121.518 127.064 120.811 128.122 119.92 129.013C119.028 129.903 117.97 130.609 116.806 131.091C115.641 131.572 114.393 131.819 113.133 131.818L113.133 131.815ZM119.748 100.546C118.791 100.546 117.856 100.262 117.06 99.7307C116.264 99.1991 115.644 98.4435 115.278 97.5594C114.911 96.6753 114.816 95.7024 115.002 94.7638C115.189 93.8252 115.65 92.963 116.326 92.2863C117.003 91.6096 117.865 91.1488 118.804 90.9622C119.742 90.7755 120.715 90.8714 121.599 91.2377C122.484 91.604 123.239 92.2243 123.771 93.02C124.302 93.8158 124.586 94.7513 124.586 95.7083C124.586 96.9915 124.076 98.2222 123.169 99.1295C122.261 100.037 121.031 100.547 119.748 100.547L119.748 100.546ZM130.227 111.025C129.27 111.025 128.335 110.741 127.539 110.21C126.743 109.678 126.123 108.923 125.757 108.038C125.391 107.154 125.295 106.182 125.481 105.243C125.668 104.305 126.129 103.442 126.805 102.766C127.482 102.089 128.344 101.628 129.283 101.441C130.221 101.255 131.194 101.35 132.078 101.717C132.962 102.083 133.718 102.703 134.249 103.498C134.781 104.294 135.065 105.23 135.065 106.186C135.065 106.823 134.94 107.453 134.696 108.042C134.453 108.63 134.095 109.164 133.645 109.614C133.194 110.063 132.659 110.42 132.071 110.663C131.482 110.905 130.852 111.029 130.215 111.028L130.227 111.025ZM130.227 90.0643C129.27 90.0644 128.335 89.7807 127.539 89.2491C126.743 88.7174 126.123 87.9618 125.757 87.0778C125.391 86.1937 125.295 85.2209 125.481 84.2823C125.668 83.3438 126.129 82.4816 126.805 81.805C127.482 81.1283 128.344 80.6675 129.283 80.4808C130.221 80.2941 131.194 80.3899 132.078 80.756C132.962 81.1222 133.718 81.7424 134.25 82.538C134.781 83.3337 135.065 84.2691 135.065 85.226C135.065 85.8626 134.94 86.493 134.696 87.0811C134.453 87.6692 134.095 88.2035 133.645 88.6532C133.194 89.1029 132.659 89.4593 132.071 89.7019C131.482 89.9445 130.852 90.0686 130.215 90.0671L130.227 90.0643ZM140.706 100.543C139.749 100.543 138.813 100.259 138.018 99.7276C137.222 99.1959 136.602 98.4403 136.236 97.5562C135.87 96.6722 135.774 95.6993 135.96 94.7608C136.147 93.8223 136.608 92.9602 137.285 92.2835C137.961 91.6069 138.823 91.1461 139.762 90.9594C140.7 90.7727 141.673 90.8685 142.557 91.2347C143.441 91.6009 144.197 92.2211 144.729 93.0167C145.26 93.8124 145.544 94.7478 145.544 95.7047C145.544 96.3414 145.419 96.9719 145.175 97.56C144.932 98.1482 144.574 98.6825 144.124 99.1322C143.673 99.582 143.138 99.9384 142.549 100.181C141.961 100.424 141.33 100.548 140.693 100.546L140.706 100.543Z" fill="white"/>
</svg>
