<svg width="184" height="223" viewBox="0 0 184 223" fill="none" xmlns="http://www.w3.org/2000/svg">
<path fill-rule="evenodd" clip-rule="evenodd" d="M44.9254 107.716C35.6941 101.845 35.6941 88.3624 44.9254 82.491L78.6319 61.0384C82.7757 58.4009 87.5858 57 92.4978 57C97.4098 57 102.22 58.4009 106.364 61.0384L140.076 82.491C149.307 88.3624 149.307 101.845 140.076 107.716L106.369 129.169C102.225 131.807 97.4152 133.207 92.5032 133.207C87.5913 133.207 82.7812 131.807 78.6373 129.169L44.9254 107.716Z" fill="white"/>
<path fill-rule="evenodd" clip-rule="evenodd" d="M134.144 110.426L106.363 92.7464C102.22 90.11 97.4109 88.7097 92.5 88.7097C87.5891 88.7097 82.7801 90.11 78.6368 92.7464L50.8561 110.426L83.0132 130.895C85.8484 132.699 89.1393 133.657 92.5 133.657C95.8607 133.657 99.1516 132.699 101.987 130.895L134.144 110.426ZM141.548 115.259C141.086 115.64 140.597 115.988 140.081 116.319L106.363 137.772C102.22 140.408 97.4109 141.808 92.5 141.808C87.5891 141.808 82.7801 140.408 78.6368 137.772L44.9249 116.319C44.4153 115.995 43.9252 115.641 43.457 115.259C35.7208 121.565 36.2101 133.879 44.9249 139.424L78.6314 160.877C82.7752 163.515 87.5853 164.915 92.4973 164.915C97.4093 164.915 102.219 163.515 106.363 160.877L140.075 139.424C148.79 133.879 149.285 121.565 141.548 115.259Z" fill="white"/>
</svg>
