<svg width="184" height="223" viewBox="0 0 184 223" fill="none" xmlns="http://www.w3.org/2000/svg">
<path d="M159.5 81H68.5C64.9102 81 62 78.0898 62 74.5V61.5C62 57.9102 64.9102 55 68.5 55H159.5C163.09 55 166 57.9102 166 61.5V74.5C166 78.0898 163.09 81 159.5 81ZM149.75 63.125C147.058 63.125 144.875 65.3076 144.875 68C144.875 70.6924 147.058 72.875 149.75 72.875C152.442 72.875 154.625 70.6924 154.625 68C154.625 65.3076 152.442 63.125 149.75 63.125ZM136.75 63.125C134.058 63.125 131.875 65.3076 131.875 68C131.875 70.6924 134.058 72.875 136.75 72.875C139.442 72.875 141.625 70.6924 141.625 68C141.625 65.3076 139.442 63.125 136.75 63.125ZM159.5 113.5H68.5C64.9102 113.5 62 110.59 62 107V94C62 90.4102 64.9102 87.5 68.5 87.5H159.5C163.09 87.5 166 90.4102 166 94V107C166 110.59 163.09 113.5 159.5 113.5ZM149.75 95.625C147.058 95.625 144.875 97.8076 144.875 100.5C144.875 103.192 147.058 105.375 149.75 105.375C152.442 105.375 154.625 103.192 154.625 100.5C154.625 97.8076 152.442 95.625 149.75 95.625ZM136.75 95.625C134.058 95.625 131.875 97.8076 131.875 100.5C131.875 103.192 134.058 105.375 136.75 105.375C139.442 105.375 141.625 103.192 141.625 100.5C141.625 97.8076 139.442 95.625 136.75 95.625ZM159.5 146H68.5C64.9102 146 62 143.09 62 139.5V126.5C62 122.91 64.9102 120 68.5 120H159.5C163.09 120 166 122.91 166 126.5V139.5C166 143.09 163.09 146 159.5 146ZM149.75 128.125C147.058 128.125 144.875 130.308 144.875 133C144.875 135.692 147.058 137.875 149.75 137.875C152.442 137.875 154.625 135.692 154.625 133C154.625 130.308 152.442 128.125 149.75 128.125ZM136.75 128.125C134.058 128.125 131.875 130.308 131.875 133C131.875 135.692 134.058 137.875 136.75 137.875C139.442 137.875 141.625 135.692 141.625 133C141.625 130.308 139.442 128.125 136.75 128.125Z" fill="white"/>
<path d="M111.782 167.312H29.3426C26.6006 167.309 23.9719 166.218 22.033 164.279C20.0942 162.341 19.0034 159.712 19 156.97V112.343C19.0034 109.601 20.0942 106.972 22.033 105.033C23.9719 103.094 26.6006 102.003 29.3426 102H111.782C114.524 102.003 117.153 103.094 119.092 105.033C121.031 106.972 122.122 109.601 122.125 112.343V156.97C122.122 159.712 121.031 162.341 119.092 164.279C117.153 166.218 114.524 167.309 111.782 167.312Z" fill="white"/>
<path d="M44 167H99Z" fill="white"/>
<path d="M44 167H99" stroke="white" stroke-width="6" stroke-miterlimit="10" stroke-linecap="round"/>
</svg>
