<svg width="184" height="223" viewBox="0 0 184 223" fill="none" xmlns="http://www.w3.org/2000/svg">
<path d="M146.576 99.2947H158.734V123.688H146.576V99.2947ZM25 99.2947H37.1576V123.688H25V99.2947ZM128.34 93.1965C128.34 89.9618 127.059 86.8595 124.779 84.5723C122.499 82.285 119.406 81 116.182 81H67.5516C64.3272 81 61.2349 82.285 58.9549 84.5723C56.6749 86.8595 55.394 89.9618 55.394 93.1965C52.1696 93.1965 49.0773 94.4815 46.7973 96.7687C44.5173 99.056 43.2364 102.158 43.2364 105.393V117.589C43.2364 120.824 44.5173 123.926 46.7973 126.214C49.0773 128.501 52.1696 129.786 55.394 129.786C55.394 133.021 56.6749 136.123 58.9549 138.41C61.2349 140.697 64.3272 141.982 67.5516 141.982H73.8006L83.5389 125.054C84.383 123.587 85.5969 122.369 87.0588 121.523C88.5206 120.676 90.1789 120.23 91.8668 120.23C93.5548 120.23 95.2131 120.676 96.6749 121.523C98.1368 122.369 99.3507 123.587 100.195 125.054L109.933 141.982H116.182C119.406 141.982 122.499 140.697 124.779 138.41C127.059 136.123 128.34 133.021 128.34 129.786C131.564 129.786 134.656 128.501 136.936 126.214C139.216 123.926 140.497 120.824 140.497 117.589V105.393C140.497 102.158 139.216 99.056 136.936 96.7687C134.656 94.4815 131.564 93.1965 128.34 93.1965ZM122.261 111.491H61.4728V99.2947H122.261V111.491Z" fill="white"/>
</svg>
